<?xml version="1.0" encoding="utf-8"?>
<!-- Generator: Adobe Illustrator 16.0.0, SVG Export Plug-In . SVG Version: 6.00 Build 0)  -->
<svg version="1.2" baseProfile="tiny" id="Capa_1" xmlns="http://www.w3.org/2000/svg" xmlns:xlink="http://www.w3.org/1999/xlink"
	 x="0px" y="0px" width="181px" height="230px" viewBox="37.813 -66.188 181 230" xml:space="preserve">
<g>
	<g>
		<path fill="#494949" d="M185.695,40.204c-3.768,0-6.907,1.256-9.419,3.139l0,0c0-8.79-6.905-15.696-15.696-15.696
			c-3.767,0-7.534,1.256-10.673,3.767c-2.511-6.278-8.163-10.046-14.441-10.046c-3.768,0-6.906,1.256-9.418,3.14V-6.885
			c0-8.79-6.906-15.696-15.696-15.696S94.655-15.675,94.655-6.885v55.879c-12.557-11.302-26.37-20.092-35.16-11.302
			C46.938,50.25,73.308,74.736,93.399,111.78c14.441,25.741,34.532,35.16,54.624,35.16c29.509,0,53.368-23.858,53.368-53.367V55.9
			C201.391,47.111,194.484,40.204,185.695,40.204z M195.112,69.714v23.858c0,24.486-21.346,47.089-47.089,47.089
			c-23.858,0-37.671-13.185-48.973-31.392C75.191,67.83,57.611,48.995,63.89,42.088c6.906-6.906,23.859,8.163,37.043,21.975V-6.885
			c0-5.023,4.395-9.418,9.418-9.418c5.022,0,9.418,4.395,9.418,9.418V59.04h6.278V37.064c0-5.023,4.396-9.418,9.418-9.418
			c5.023,0,9.418,4.395,9.418,9.418v15.696h6.278v-9.418c0-5.023,4.396-9.418,9.418-9.418s9.418,4.395,9.418,9.418v15.696h6.278
			v-3.14c0-5.022,4.396-9.418,9.418-9.418c5.023,0,9.418,4.396,9.418,9.418L195.112,69.714L195.112,69.714z"/>
	</g>
</g>
<polyline fill="#494949" points="135.214,-9.019 148.018,-9.019 148.018,-14.764 157.456,-6.064 148.182,2.635 148.182,-2.863 
	135.214,-2.863 "/>
<polyline fill="#494949" points="85.971,-8.691 73.167,-8.691 73.167,-14.436 63.729,-5.736 73.003,2.963 73.003,-2.535 
	85.971,-2.535 "/>
<polyline fill="#494949" points="113.096,-30.07 113.096,-42.874 118.841,-42.874 110.141,-52.313 101.441,-43.038 106.94,-43.038 
	106.94,-30.07 "/>
</svg>
