<?xml version="1.0" encoding="utf-8"?>
<!-- Generator: Adobe Illustrator 16.0.0, SVG Export Plug-In . SVG Version: 6.00 Build 0)  -->
<svg version="1.2" baseProfile="tiny" id="Capa_1" xmlns="http://www.w3.org/2000/svg" xmlns:xlink="http://www.w3.org/1999/xlink"
	 x="0px" y="0px" width="554.625px" height="642px" viewBox="0 -66.188 554.625 642" xml:space="preserve">
<g>
	<g>
		<path d="M450.579,229.5c-11.476,0-21.037,3.825-28.688,9.562l0,0c0-26.775-21.036-47.812-47.812-47.812
			c-11.476,0-22.949,3.825-32.512,11.475c-7.65-19.125-24.863-30.6-43.988-30.6c-11.476,0-21.037,3.825-28.688,9.562V86.062
			c0-26.775-21.037-47.812-47.812-47.812s-47.812,21.038-47.812,47.812v170.212c-38.25-34.425-80.325-61.2-107.1-34.425
			c-38.25,38.25,42.075,112.836,103.275,225.675c43.988,78.411,105.188,107.1,166.387,107.1
			c89.888,0,162.562-72.675,162.562-162.562v-114.75C498.391,250.538,477.354,229.5,450.579,229.5z M479.266,319.389v72.674
			c0,74.589-65.023,143.438-143.438,143.438c-72.675,0-114.75-40.162-149.175-95.625c-72.675-126.226-126.225-183.6-107.1-204.638
			c21.037-21.037,72.675,24.863,112.837,66.938V86.062c0-15.3,13.387-28.688,28.688-28.688c15.3,0,28.688,13.388,28.688,28.688
			v200.812h19.125v-66.938c0-15.3,13.388-28.688,28.688-28.688c15.301,0,28.688,13.388,28.688,28.688v47.812h19.125V239.06
			c0-15.3,13.389-28.688,28.688-28.688c15.301,0,28.688,13.388,28.688,28.688v47.812h19.125v-9.562
			c0-15.3,13.389-28.688,28.688-28.688c15.301,0,28.688,13.388,28.688,28.688v42.079H479.266z"/>
	</g>
</g>
<polyline points="296.813,79.563 335.813,79.563 335.813,62.063 364.563,88.563 336.313,115.063 336.313,98.313 296.813,98.313 "/>
<polyline points="146.813,80.563 107.813,80.563 107.813,63.063 79.063,89.563 107.313,116.063 107.313,99.313 146.813,99.313 "/>
<polyline points="229.438,15.438 229.438,-23.563 246.938,-23.563 220.438,-52.313 193.938,-24.063 210.688,-24.063 210.688,15.438 
	"/>
</svg>
